<svg width="39" height="35" viewBox="0 0 39 35" fill="none" xmlns="http://www.w3.org/2000/svg">
<g clip-path="url(#clip0_211_2052)">
<path d="M38.5803 14.4806C38.5842 14.4516 38.5842 14.4222 38.5803 14.3932C38.584 14.3695 38.584 14.3454 38.5803 14.3217L38.2966 12.2804C38.2557 12.0362 38.1463 11.8079 37.9807 11.6211L37.932 11.5655L37.843 11.4782L32.9332 7.33197L33.0709 7.46701C32.9582 7.33484 32.8168 7.22912 32.6569 7.15764C32.4971 7.08616 32.3229 7.05074 32.1473 7.05398H30.6565C30.4141 7.04927 30.1772 7.12483 29.984 7.26844C29.7812 7.1257 29.537 7.05052 29.2873 7.05398H27.7965C27.601 7.05087 27.4081 7.09844 27.2374 7.19189C27.0667 7.28534 26.9242 7.42135 26.8243 7.58615C26.6703 7.82153 26.6125 8.10512 26.6622 8.38044L26.8486 9.66719C26.7251 9.59858 26.5854 9.56298 26.4435 9.56394H19.2246C18.9656 9.56553 18.7126 9.63996 18.4954 9.77839C18.2855 9.90724 18.1169 10.0917 18.0093 10.3106L17.4503 9.84193C17.2303 9.64235 16.9398 9.53417 16.6401 9.54011H5.31357C5.05365 9.54475 4.7995 9.61594 4.57631 9.74662C4.27097 9.92183 4.04719 10.2067 3.95245 10.5409L0.355175 22.3361C0.287961 22.5305 0.281349 22.7401 0.336186 22.9381C0.391022 23.1362 0.504824 23.3138 0.663053 23.4481C0.704282 23.4824 0.747573 23.5142 0.792687 23.5434C0.792687 23.5434 0.719758 23.4958 0.679248 23.4561L5.58906 27.6102C5.79675 27.7977 6.0683 27.9024 6.35059 27.9041H17.7663C18.027 27.8974 18.2813 27.8235 18.5036 27.6896C18.6293 27.6223 18.7417 27.5335 18.8357 27.4275L18.8763 27.3719L18.9411 27.2925L18.9897 27.2051L19.5244 27.6579C19.7291 27.8379 19.9948 27.9369 20.2698 27.9359H31.7097C31.9702 27.9273 32.224 27.8535 32.447 27.7214C32.5699 27.6499 32.6817 27.5616 32.7792 27.4593L32.8197 27.4037L32.8845 27.3243C32.919 27.274 32.9489 27.2209 32.9736 27.1654C33.0001 27.1172 33.0218 27.0667 33.0385 27.0145L36.3198 16.2439V16.1486C36.3238 16.1116 36.3238 16.0744 36.3198 16.0374V15.9659C36.3237 15.9422 36.3237 15.9181 36.3198 15.8944C36.3234 15.8442 36.3234 15.7938 36.3198 15.7435H37.373C37.4646 15.7517 37.5569 15.7517 37.6485 15.7435H37.7214C37.7807 15.7262 37.8378 15.7021 37.8916 15.672H37.9726L38.1184 15.5608L38.1832 15.5132L38.2966 15.3702V15.3226L38.3777 15.1875C38.3731 15.1612 38.3731 15.1344 38.3777 15.1081C38.3734 15.0952 38.3734 15.0813 38.3777 15.0684C38.3949 15.0218 38.4085 14.974 38.4182 14.9254C38.4144 14.9097 38.4144 14.8934 38.4182 14.8777C38.4142 14.8541 38.4142 14.8299 38.4182 14.8062C38.4182 14.8062 38.5803 14.4965 38.5803 14.4806Z" fill="black"/>
<path d="M16.9723 10.4456C17.0153 10.4838 17.0453 10.5339 17.0584 10.5893C17.0714 10.6447 17.0668 10.7027 17.0452 10.7554L13.4561 22.5427C13.4109 22.6713 13.3184 22.7789 13.1968 22.8445C13.0978 22.9094 12.9833 22.9477 12.8646 22.9557H1.45705C1.35963 22.9511 1.26733 22.9115 1.19778 22.8445C1.15641 22.807 1.12737 22.7582 1.11438 22.7045C1.10139 22.6507 1.10505 22.5944 1.12487 22.5427L4.72214 10.7554C4.76358 10.6251 4.85314 10.5146 4.97329 10.4456C5.07388 10.3854 5.18787 10.35 5.30548 10.3424H16.713C16.8097 10.3433 16.9024 10.3802 16.9723 10.4456ZM11.0173 20.1677L13.1644 13.1303H7.15274L5.0138 20.1677H11.0173ZM27.8613 10.5648C27.9002 10.6091 27.9489 10.6443 28.0036 10.6677C28.0583 10.691 28.1177 10.702 28.1773 10.6998H29.66C29.7164 10.7003 29.772 10.6868 29.8217 10.6604C29.8713 10.634 29.9132 10.5956 29.9435 10.5489C29.9698 10.5124 29.9885 10.4711 29.9982 10.4274C30.0079 10.3838 30.0086 10.3386 30.0002 10.2947L29.7086 8.19779C29.6808 8.10074 29.6309 8.01112 29.5628 7.93567C29.5238 7.89133 29.4752 7.85616 29.4205 7.83279C29.3658 7.80941 29.3064 7.79842 29.2468 7.80064H27.7641C27.7076 7.8001 27.652 7.81368 27.6024 7.84008C27.5528 7.86649 27.5108 7.90485 27.4805 7.95156C27.4238 8.06276 27.3995 8.13424 27.4238 8.19779L27.7236 10.2947C27.739 10.3968 27.7872 10.4914 27.8613 10.5648ZM32.5686 8.1819C32.5408 8.08485 32.4909 7.99523 32.4227 7.91979C32.3854 7.8756 32.3382 7.84045 32.2848 7.81703C32.2315 7.79362 32.1733 7.78257 32.1149 7.78476H30.6241C30.5686 7.78321 30.5136 7.79641 30.4651 7.82298C30.4166 7.84955 30.3764 7.88849 30.3486 7.93567C30.2947 8.00614 30.2714 8.09465 30.2838 8.1819L30.5836 10.2788C30.6024 10.3799 30.6501 10.4735 30.7213 10.5489C30.7609 10.5924 30.8097 10.6269 30.8643 10.6502C30.9188 10.6735 30.9778 10.685 31.0373 10.6839H32.5281C32.5835 10.6846 32.638 10.6711 32.6863 10.6446C32.7347 10.6181 32.7751 10.5796 32.8035 10.533C32.8317 10.4975 32.8514 10.4562 32.8612 10.4122C32.8711 10.3682 32.8707 10.3227 32.8602 10.2788L32.5686 8.1819ZM26.5569 11.3591L26.411 10.3265H19.2246C19.1118 10.3326 19.0026 10.3682 18.9086 10.4297C18.849 10.4616 18.797 10.5059 18.7565 10.5593C18.7159 10.6128 18.6877 10.6743 18.6737 10.7395L18.0742 12.7093C18.0502 12.7586 18.042 12.8138 18.0507 12.8677C18.0594 12.9216 18.0845 12.9716 18.1228 13.0112C18.1911 13.0741 18.2803 13.1108 18.3739 13.1144H27.1079L24.9608 20.1519H16.2512C16.1389 20.1544 16.0295 20.1874 15.9353 20.2471C15.8207 20.3185 15.737 20.4288 15.7003 20.5569L15.0926 22.5268C15.0728 22.5773 15.0676 22.6322 15.0776 22.6855C15.0876 22.7388 15.1124 22.7883 15.1493 22.8286C15.2155 22.8958 15.3054 22.9356 15.4005 22.9398H26.8405C26.9588 22.9298 27.0728 22.8916 27.1726 22.8286C27.2923 22.7627 27.382 22.6549 27.4238 22.5268L30.7132 11.7562H27.0106C26.9519 11.7573 26.8935 11.7466 26.8392 11.7248C26.7848 11.7029 26.7357 11.6704 26.6947 11.6291C26.6277 11.5571 26.5803 11.4697 26.5569 11.3749V11.3591Z" fill="white"/>
</g>
<defs>
<clipPath id="clip0_211_2052">
<rect width="38.2838" height="20.8821" fill="white" transform="translate(0.299408 7.05377)"/>
</clipPath>
</defs>
</svg>
