<svg width="39" height="35" viewBox="0 0 39 35" fill="none" xmlns="http://www.w3.org/2000/svg">
<g clip-path="url(#clip0_211_2080)">
<path d="M38.8874 14.4806C38.8913 14.4516 38.8913 14.4222 38.8874 14.3932C38.8911 14.3695 38.8911 14.3454 38.8874 14.3217L38.6037 12.2804C38.5628 12.0362 38.4534 11.8079 38.2878 11.6211L38.2391 11.5655L38.1501 11.4782L33.2403 7.33197L33.378 7.46701C33.2653 7.33484 33.1239 7.22912 32.964 7.15764C32.8042 7.08616 32.63 7.05074 32.4544 7.05398H30.9636C30.7212 7.04927 30.4843 7.12483 30.2911 7.26844C30.0883 7.1257 29.8441 7.05052 29.5944 7.05398H28.1036C27.9081 7.05087 27.7152 7.09844 27.5445 7.19189C27.3738 7.28534 27.2313 7.42135 27.1314 7.58615C26.9774 7.82153 26.9196 8.10512 26.9693 8.38044L27.1557 9.66719C27.0322 9.59858 26.8925 9.56298 26.7506 9.56394H19.5317C19.2727 9.56553 19.0197 9.63996 18.8025 9.77839C18.5926 9.90724 18.424 10.0917 18.3164 10.3106L17.7574 9.84193C17.5374 9.64235 17.2469 9.53417 16.9472 9.54011H5.62067C5.36075 9.54475 5.1066 9.61594 4.88341 9.74662C4.57806 9.92183 4.35429 10.2067 4.25954 10.5409L0.662273 22.3361C0.595059 22.5305 0.588447 22.7401 0.643284 22.9381C0.698121 23.1362 0.811922 23.3138 0.970151 23.4481C1.01138 23.4824 1.05467 23.5142 1.09979 23.5434C1.09979 23.5434 1.02686 23.4958 0.986346 23.4561L5.89616 27.6102C6.10385 27.7977 6.3754 27.9024 6.65769 27.9041H18.0734C18.3341 27.8974 18.5884 27.8235 18.8107 27.6896C18.9364 27.6223 19.0488 27.5335 19.1428 27.4275L19.1834 27.3719L19.2482 27.2925L19.2968 27.2051L19.8315 27.6579C20.0362 27.8379 20.3019 27.9369 20.5769 27.9359H32.0168C32.2773 27.9273 32.5311 27.8535 32.7541 27.7214C32.877 27.6499 32.9888 27.5616 33.0863 27.4593L33.1268 27.4037L33.1916 27.3243C33.2261 27.274 33.256 27.2209 33.2807 27.1654C33.3072 27.1172 33.3289 27.0667 33.3456 27.0145L36.6269 16.2439V16.1486C36.6309 16.1116 36.6309 16.0744 36.6269 16.0374V15.9659C36.6308 15.9422 36.6308 15.9181 36.6269 15.8944C36.6305 15.8442 36.6305 15.7938 36.6269 15.7435H37.6801C37.7717 15.7517 37.8639 15.7517 37.9556 15.7435H38.0285C38.0878 15.7262 38.1449 15.7021 38.1987 15.672H38.2797L38.4255 15.5608L38.4903 15.5132L38.6037 15.3702V15.3226L38.6848 15.1875C38.6802 15.1612 38.6802 15.1344 38.6848 15.1081C38.6805 15.0952 38.6805 15.0813 38.6848 15.0684C38.702 15.0218 38.7155 14.974 38.7253 14.9254C38.7215 14.9097 38.7215 14.8934 38.7253 14.8777C38.7213 14.8541 38.7213 14.8299 38.7253 14.8062C38.7253 14.8062 38.8874 14.4965 38.8874 14.4806Z" fill="black"/>
<path d="M17.2793 10.4456C17.3224 10.4838 17.3524 10.5339 17.3654 10.5893C17.3785 10.6447 17.3739 10.7027 17.3523 10.7554L13.7631 22.5427C13.7179 22.6713 13.6255 22.7789 13.5039 22.8445C13.4049 22.9094 13.2904 22.9477 13.1716 22.9557H1.76412C1.66669 22.9511 1.5744 22.9115 1.50485 22.8445C1.46348 22.807 1.43444 22.7582 1.42145 22.7045C1.40846 22.6507 1.41212 22.5944 1.43193 22.5427L5.0292 10.7554C5.07065 10.6251 5.16021 10.5146 5.28036 10.4456C5.38095 10.3854 5.49493 10.35 5.61254 10.3424H17.0201C17.1167 10.3433 17.2094 10.3802 17.2793 10.4456ZM11.3244 20.1677L13.4714 13.1303H7.45981L5.32086 20.1677H11.3244ZM28.1684 10.5648C28.2073 10.6091 28.256 10.6443 28.3107 10.6677C28.3654 10.691 28.4247 10.702 28.4844 10.6998H29.967C30.0235 10.7003 30.0791 10.6868 30.1288 10.6604C30.1784 10.634 30.2203 10.5956 30.2506 10.5489C30.2769 10.5124 30.2955 10.4711 30.3053 10.4274C30.315 10.3838 30.3157 10.3386 30.3073 10.2947L30.0156 8.19779C29.9879 8.10074 29.938 8.01112 29.8698 7.93567C29.8309 7.89133 29.7823 7.85616 29.7275 7.83279C29.6728 7.80941 29.6134 7.79842 29.5538 7.80064H28.0712C28.0147 7.8001 27.959 7.81368 27.9094 7.84008C27.8598 7.86649 27.8179 7.90485 27.7876 7.95156C27.7309 8.06276 27.7066 8.13424 27.7309 8.19779L28.0307 10.2947C28.046 10.3968 28.0943 10.4914 28.1684 10.5648ZM32.8756 8.1819C32.8478 8.08485 32.798 7.99523 32.7298 7.91979C32.6925 7.8756 32.6453 7.84045 32.5919 7.81703C32.5385 7.79362 32.4804 7.78257 32.4219 7.78476H30.9311C30.8756 7.78321 30.8207 7.79641 30.7722 7.82298C30.7237 7.84955 30.6835 7.88849 30.6557 7.93567C30.6018 8.00614 30.5785 8.09465 30.5909 8.1819L30.8906 10.2788C30.9094 10.3799 30.9572 10.4735 31.0284 10.5489C31.068 10.5924 31.1168 10.6269 31.1713 10.6502C31.2259 10.6735 31.2848 10.685 31.3443 10.6839H32.8351C32.8905 10.6846 32.9451 10.6711 32.9934 10.6446C33.0418 10.6181 33.0822 10.5796 33.1106 10.533C33.1388 10.4975 33.1585 10.4562 33.1683 10.4122C33.1781 10.3682 33.1778 10.3227 33.1673 10.2788L32.8756 8.1819ZM26.864 11.3591L26.7181 10.3265H19.5317C19.4189 10.3326 19.3097 10.3682 19.2157 10.4297C19.156 10.4616 19.1041 10.5059 19.0635 10.5593C19.023 10.6128 18.9948 10.6743 18.9808 10.7395L18.3812 12.7093C18.3573 12.7586 18.3491 12.8138 18.3578 12.8677C18.3665 12.9216 18.3916 12.9716 18.4298 13.0112C18.4981 13.0741 18.5873 13.1108 18.681 13.1144H27.4149L25.2679 20.1519H16.5583C16.446 20.1544 16.3366 20.1874 16.2423 20.2471C16.1277 20.3185 16.0441 20.4288 16.0074 20.5569L15.3997 22.5268C15.3799 22.5773 15.3747 22.6322 15.3847 22.6855C15.3947 22.7388 15.4195 22.7883 15.4564 22.8286C15.5226 22.8958 15.6125 22.9356 15.7076 22.9398H27.1475C27.2658 22.9298 27.3799 22.8916 27.4797 22.8286C27.5993 22.7627 27.6891 22.6549 27.7309 22.5268L31.0203 11.7562H27.3177C27.2589 11.7573 27.2006 11.7466 27.1463 11.7248C27.0919 11.7029 27.0427 11.6704 27.0017 11.6291C26.9347 11.5571 26.8874 11.4697 26.864 11.3749V11.3591Z" fill="white"/>
</g>
<defs>
<clipPath id="clip0_211_2080">
<rect width="38.2838" height="20.8821" fill="white" transform="translate(0.606506 7.05377)"/>
</clipPath>
</defs>
</svg>
