<svg id="a0931cbd-449a-4f69-b851-bd1223ea2873" data-name="Layer 1" xmlns="http://www.w3.org/2000/svg" viewBox="0 0 157 25"><polygon points="135.62 0 0 0 0 25 157 25 135.62 0"/><text transform="translate(37.84 17.37)" font-size="11.99" fill="#fff" font-family="ArialMT, Arial"><tspan letter-spacing="-0.06em">A</tspan><tspan x="7.34" y="0" xml:space="preserve"> D V E R G I C</tspan></text><path d="M8.87,18.93A1.15,1.15,0,0,1,8,18.5a1.08,1.08,0,0,1-.2-1l1.8-6.3a1.14,1.14,0,0,1,1.11-.81h5.07a1.17,1.17,0,0,1,.91.43,1.11,1.11,0,0,1,.19,1L15,18.12a1.13,1.13,0,0,1-1.1.81Z" fill="#ff6900"/><path d="M13.44,20.84a1.18,1.18,0,0,1-.88-.4,1.08,1.08,0,0,1-.24-.91L15,6.92A1.14,1.14,0,0,1,16.08,6h5.08a1.18,1.18,0,0,1,.88.4,1.09,1.09,0,0,1,.24.91L19.64,20a1.14,1.14,0,0,1-1.12.88Z" fill="#f9c800"/><path d="M19.33,22.19a1.14,1.14,0,0,1-.88-.4,1,1,0,0,1-.24-.89L21.55,3.7a1.13,1.13,0,0,1,1.12-.89h4.71a1.17,1.17,0,0,1,.88.39,1.09,1.09,0,0,1,.24.9L25.16,21.3a1.13,1.13,0,0,1-1.12.89Z" fill="#009e60"/></svg>